<svg xmlns="http://www.w3.org/2000/svg" width="512" height="512" viewBox="0 0 512 512" version="1.1"><path d="M 237.500 105.614 C 186.939 112.996, 144.583 142.508, 122.126 186 C 115.160 199.492, 111.038 210.767, 107.824 225.119 C 105.805 234.137, 105.500 238.191, 105.500 256 C 105.500 273.809, 105.805 277.863, 107.824 286.881 C 120.487 343.436, 162.536 387.667, 217.297 402.035 C 233.028 406.162, 244.776 407.375, 262.376 406.691 C 301.499 405.169, 334.522 390.627, 362.564 362.571 C 376.404 348.724, 388.082 332.594, 385.810 330.462 C 382.841 327.678, 321.524 292.927, 321.216 293.853 C 320.327 296.520, 310.534 308.251, 305.337 312.874 C 298.030 319.375, 281.882 327.555, 272.500 329.508 C 263.532 331.375, 248.456 331.373, 239.500 329.505 C 230.706 327.670, 216.332 320.609, 208.524 314.289 C 187.011 296.874, 176.593 266.916, 182.584 239.697 C 184.637 230.373, 191.564 216.088, 197.700 208.524 C 207.593 196.331, 224.395 185.953, 239.697 182.584 C 255.485 179.109, 273.606 181.260, 288.500 188.377 C 300.879 194.292, 309.442 201.749, 319.500 215.376 L 321.500 218.086 354 199.390 C 371.875 189.108, 386.668 180.559, 386.872 180.392 C 387.668 179.744, 375.685 163.018, 369.524 156.177 C 347.175 131.364, 321.358 116.021, 289 108.323 C 280.137 106.215, 275.539 105.775, 259.500 105.500 C 249.050 105.322, 239.150 105.373, 237.500 105.614 M 390 226 L 390 232 384 232 L 378 232 378 239.500 L 378 247 384 247 L 390 247 390 256.500 L 390 266 384 266 L 378 266 378 273.500 L 378 281 384 281 L 390 281 390 287 L 390 293 397.500 293 L 405 293 405 287 L 405 281 414 281 L 423 281 423 287 L 423 293 430.500 293 L 438 293 438 287 L 438 281 444 281 L 450 281 450 273.500 L 450 266 444 266 L 438 266 438 256.500 L 438 247 444 247 L 450 247 450 239.500 L 450 232 444 232 L 438 232 438 226 L 438 220 430.500 220 L 423 220 423 226 L 423 232 414 232 L 405 232 405 226 L 405 220 397.500 220 L 390 220 390 226 M 405 256.500 L 405 266 414 266 L 423 266 423 256.500 L 423 247 414 247 L 405 247 405 256.500" stroke="none" fill="#fbfbfb" fill-rule="evenodd"/><path d="M 242 2.045 C 238.975 3.131, 229.300 8.168, 220.500 13.240 C 211.700 18.312, 169.175 42.776, 126 67.604 C 41.157 116.393, 38.039 118.457, 32.703 129.353 C 31.222 132.378, 29.547 137.023, 28.980 139.676 C 28.298 142.870, 28.043 183.182, 28.225 259 L 28.500 373.500 30.793 378.897 C 33.951 386.328, 38.618 392.550, 43.979 396.478 C 49.513 400.532, 222.977 500.667, 235.399 506.979 L 244.298 511.500 255.899 511.500 C 266.813 511.500, 267.885 511.316, 274 508.396 C 283.958 503.640, 462.893 400.314, 467.923 396.415 C 473.788 391.868, 479.407 384.242, 481.666 377.762 C 483.404 372.774, 483.500 366.397, 483.500 255.500 L 483.500 138.500 481.092 132.500 C 479.274 127.970, 476.948 124.802, 471.592 119.567 C 464.988 113.112, 457.994 108.894, 370.030 58.335 C 317.861 28.349, 272.884 3.131, 269.586 2.017 C 261.615 -0.674, 249.547 -0.662, 242 2.045 M 237.500 105.614 C 186.939 112.996, 144.583 142.508, 122.126 186 C 115.160 199.492, 111.038 210.767, 107.824 225.119 C 105.805 234.137, 105.500 238.191, 105.500 256 C 105.500 273.809, 105.805 277.863, 107.824 286.881 C 120.487 343.436, 162.536 387.667, 217.297 402.035 C 233.028 406.162, 244.776 407.375, 262.376 406.691 C 301.499 405.169, 334.522 390.627, 362.564 362.571 C 376.404 348.724, 388.082 332.594, 385.810 330.462 C 382.841 327.678, 321.524 292.927, 321.216 293.853 C 320.327 296.520, 310.534 308.251, 305.337 312.874 C 298.030 319.375, 281.882 327.555, 272.500 329.508 C 263.532 331.375, 248.456 331.373, 239.500 329.505 C 230.706 327.670, 216.332 320.609, 208.524 314.289 C 187.011 296.874, 176.593 266.916, 182.584 239.697 C 184.637 230.373, 191.564 216.088, 197.700 208.524 C 207.593 196.331, 224.395 185.953, 239.697 182.584 C 255.485 179.109, 273.606 181.260, 288.500 188.377 C 300.879 194.292, 309.442 201.749, 319.500 215.376 L 321.500 218.086 354 199.390 C 371.875 189.108, 386.668 180.559, 386.872 180.392 C 387.668 179.744, 375.685 163.018, 369.524 156.177 C 347.175 131.364, 321.358 116.021, 289 108.323 C 280.137 106.215, 275.539 105.775, 259.500 105.500 C 249.050 105.322, 239.150 105.373, 237.500 105.614 M 390 226 L 390 232 384 232 L 378 232 378 239.500 L 378 247 384 247 L 390 247 390 256.500 L 390 266 384 266 L 378 266 378 273.500 L 378 281 384 281 L 390 281 390 287 L 390 293 397.500 293 L 405 293 405 287 L 405 281 414 281 L 423 281 423 287 L 423 293 430.500 293 L 438 293 438 287 L 438 281 444 281 L 450 281 450 273.500 L 450 266 444 266 L 438 266 438 256.500 L 438 247 444 247 L 450 247 450 239.500 L 450 232 444 232 L 438 232 438 226 L 438 220 430.500 220 L 423 220 423 226 L 423 232 414 232 L 405 232 405 226 L 405 220 397.500 220 L 390 220 390 226 M 405 256.500 L 405 266 414 266 L 423 266 423 256.500 L 423 247 414 247 L 405 247 405 256.500" stroke="none" fill="#9b3589" fill-rule="evenodd"/></svg>