<svg xmlns="http://www.w3.org/2000/svg" width="512" height="512" viewBox="0 0 512 512" version="1.1"><path d="M 237.712 105.055 C 201.294 110.119, 171.070 125.437, 146.292 151.389 C 125.351 173.323, 111.983 199.478, 106.370 229.500 C 103.788 243.310, 103.788 268.690, 106.370 282.500 C 108.574 294.290, 113.495 309.873, 118.291 320.255 C 125.613 336.101, 142.222 357.967, 155.840 369.687 C 202.589 409.920, 265.699 418.794, 320.953 392.901 C 341.730 383.164, 364.315 364.606, 377.935 346.078 C 383.917 337.941, 387.495 332.094, 386.824 331.553 C 386.646 331.409, 379.075 327.005, 370 321.764 C 321.745 293.901, 321.661 293.855, 320.840 295.322 C 318.006 300.385, 309.815 309.874, 304.621 314.110 C 297.444 319.963, 282.990 327.359, 274.573 329.485 C 239.895 338.246, 203.151 321.077, 188.279 289.165 C 182.474 276.708, 180.703 267.659, 181.219 253.084 C 181.583 242.789, 182.160 239.045, 184.390 232.500 C 188.279 221.084, 194.193 211.641, 202.917 202.917 C 211.581 194.253, 220.972 188.349, 232.500 184.318 C 239.932 181.720, 241.601 181.521, 256 181.521 C 270.399 181.521, 272.068 181.720, 279.500 184.318 C 294.757 189.653, 309.155 200.319, 317.546 212.502 C 319.628 215.526, 321.511 218, 321.730 218 C 323.092 218, 386.985 180.310, 386.996 179.500 C 387.034 176.499, 374.162 160.062, 363.048 148.921 C 340.718 126.537, 315.787 113.093, 285.102 106.892 C 273.893 104.626, 248.012 103.623, 237.712 105.055" stroke="none" fill="#fbfbfb" fill-rule="evenodd"/><path d="M 242.500 1.799 C 239.750 2.752, 194.546 28.275, 142.047 58.516 C 36.123 119.532, 38.927 117.663, 32.215 131.720 L 28.500 139.500 28.500 256 L 28.500 372.500 32.210 380.269 C 38.873 394.223, 36.089 392.369, 142.500 453.712 C 195.300 484.150, 240.719 509.716, 243.432 510.527 C 249.759 512.417, 262.241 512.417, 268.568 510.527 C 271.281 509.716, 316.700 484.150, 369.500 453.712 C 475.911 392.369, 473.127 394.223, 479.790 380.269 L 483.500 372.500 483.500 255.925 L 483.500 139.349 479.236 130.744 C 476.257 124.732, 473.545 120.877, 470.236 117.950 C 464.190 112.603, 275.225 3.462, 268.568 1.473 C 261.845 -0.535, 248.762 -0.372, 242.500 1.799 M 237.712 105.055 C 201.294 110.119, 171.070 125.437, 146.292 151.389 C 125.351 173.323, 111.983 199.478, 106.370 229.500 C 103.788 243.310, 103.788 268.690, 106.370 282.500 C 108.574 294.290, 113.495 309.873, 118.291 320.255 C 125.613 336.101, 142.222 357.967, 155.840 369.687 C 202.589 409.920, 265.699 418.794, 320.953 392.901 C 341.730 383.164, 364.315 364.606, 377.935 346.078 C 383.917 337.941, 387.495 332.094, 386.824 331.553 C 386.646 331.409, 379.075 327.005, 370 321.764 C 321.745 293.901, 321.661 293.855, 320.840 295.322 C 318.006 300.385, 309.815 309.874, 304.621 314.110 C 297.444 319.963, 282.990 327.359, 274.573 329.485 C 239.895 338.246, 203.151 321.077, 188.279 289.165 C 182.474 276.708, 180.703 267.659, 181.219 253.084 C 181.583 242.789, 182.160 239.045, 184.390 232.500 C 188.279 221.084, 194.193 211.641, 202.917 202.917 C 211.581 194.253, 220.972 188.349, 232.500 184.318 C 239.932 181.720, 241.601 181.521, 256 181.521 C 270.399 181.521, 272.068 181.720, 279.500 184.318 C 294.757 189.653, 309.155 200.319, 317.546 212.502 C 319.628 215.526, 321.511 218, 321.730 218 C 323.092 218, 386.985 180.310, 386.996 179.500 C 387.034 176.499, 374.162 160.062, 363.048 148.921 C 340.718 126.537, 315.787 113.093, 285.102 106.892 C 273.893 104.626, 248.012 103.623, 237.712 105.055" stroke="none" fill="#4530ae" fill-rule="evenodd"/></svg>