<?xml version="1.0" standalone="no"?>
<!DOCTYPE svg PUBLIC "-//W3C//DTD SVG 20010904//EN"
 "http://www.w3.org/TR/2001/REC-SVG-20010904/DTD/svg10.dtd">
<svg version="1.0" xmlns="http://www.w3.org/2000/svg"
 width="512.000000pt" height="512.000000pt" viewBox="0 0 512.000000 512.000000"
 preserveAspectRatio="xMidYMid meet">

<g transform="translate(0.000000,512.000000) scale(0.100000,-0.100000)"
fill="#000000" stroke="none">
<path d="M2315 5114 c-22 -2 -96 -8 -165 -14 -430 -37 -826 -138 -1135 -290
-192 -94 -283 -156 -400 -274 -107 -108 -161 -189 -198 -296 l-22 -65 -3
-1613 c-2 -1405 0 -1621 13 -1677 92 -398 649 -714 1470 -835 247 -36 377 -45
685 -45 308 0 437 9 685 45 837 122 1405 454 1475 861 7 45 10 542 8 1664 l-3
1600 -22 65 c-37 107 -91 188 -198 296 -117 118 -208 180 -400 274 -294 145
-647 238 -1075 285 -135 15 -624 28 -715 19z m520 -339 c602 -29 1184 -221
1436 -474 136 -137 158 -263 68 -396 -175 -260 -665 -460 -1324 -542 -195 -24
-702 -24 -900 -1 -540 65 -986 219 -1225 421 -52 44 -117 126 -141 177 -100
211 137 461 602 634 274 101 639 169 1004 185 166 8 235 7 480 -4z m-2023
-1349 c260 -168 618 -295 1023 -360 284 -46 353 -51 740 -50 325 0 390 3 535
22 502 68 909 199 1196 387 46 30 87 55 90 55 3 0 4 -118 2 -262 -3 -303 -3
-303 -106 -410 -201 -211 -648 -371 -1242 -445 -207 -25 -773 -25 -980 0 -395
49 -695 126 -935 241 -148 70 -241 133 -314 212 -96 102 -95 98 -99 402 -2
144 -1 262 2 262 3 0 43 -24 88 -54z m-20 -1017 c216 -141 605 -277 968 -338
607 -103 1316 -82 1864 56 267 67 544 178 704 282 34 23 65 41 68 41 3 0 4
-111 2 -247 -4 -277 -4 -277 -79 -367 -188 -228 -657 -401 -1299 -478 -144
-18 -778 -17 -925 0 -630 76 -1107 252 -1294 478 -75 90 -75 90 -79 367 -2
136 -1 247 2 247 3 0 34 -18 68 -41z m-29 -983 c52 -39 254 -141 367 -186 213
-83 496 -154 780 -194 388 -55 912 -55 1300 0 460 65 893 207 1131 370 27 19
51 34 55 34 3 0 4 -111 2 -247 -3 -239 -4 -250 -28 -298 -96 -198 -479 -391
-975 -490 -870 -174 -1927 -52 -2440 284 -91 59 -175 143 -206 206 -23 48 -24
59 -27 298 -2 136 -1 247 3 247 3 0 21 -11 38 -24z"/>
</g>
</svg>
