<svg xmlns="http://www.w3.org/2000/svg" width="512" height="512" viewBox="0 0 512 512" version="1.1"><path d="M 174 67.500 L 166.532 75.018 192.814 101.314 L 219.096 127.610 217.111 132.241 C 216.019 134.788, 214.595 139.568, 213.947 142.862 L 212.769 148.852 213.948 155.622 C 215.382 163.858, 218.698 171.119, 223.688 176.949 C 227.929 181.903, 237.630 188.540, 242.049 189.511 L 245 190.159 245 255.879 L 245 321.598 241.250 322.910 C 227.256 327.806, 216.678 340.700, 213.989 356.139 L 212.852 362.670 213.993 369.085 C 217.734 390.115, 235.055 405, 255.787 405 C 268.411 405, 278.137 400.778, 286.930 391.480 C 293.115 384.941, 296.513 377.927, 297.980 368.677 L 299.062 361.855 297.942 355.677 C 295.199 340.552, 284.573 327.746, 270.750 322.910 L 267 321.598 267 255.799 C 267 210.578, 267.328 190, 268.048 190 C 268.625 190, 270.977 189.091, 273.276 187.981 L 277.456 185.961 301.747 210.253 L 326.039 234.544 323.893 238.985 C 322.713 241.427, 321.263 246.255, 320.671 249.713 L 319.594 256 320.722 262.587 C 324.681 285.698, 346.294 301.527, 368.983 297.931 C 389.891 294.617, 405 277.028, 405 256 C 405 243.632, 400.466 233.412, 391.104 224.680 C 378.887 213.286, 361.586 210.390, 345.938 217.122 L 340.826 219.321 316.753 195.247 L 292.679 171.174 294.878 166.062 C 299.760 154.714, 299.628 142.487, 294.503 131.247 C 291.705 125.110, 283.514 116.075, 277.626 112.632 C 267.695 106.823, 253.216 105.338, 243 109.080 C 239.975 110.188, 236.667 111.363, 235.650 111.690 L 233.800 112.286 207.634 86.134 L 181.468 59.982 174 67.500" stroke="none" fill="#fbfafa" fill-rule="evenodd"/><path d="M 243 2.193 L 237.500 4.282 209.500 32.114 L 181.500 59.947 207.500 86.021 L 233.500 112.096 235.500 111.611 C 236.600 111.345, 239.975 110.213, 243 109.096 C 253.191 105.333, 267.677 106.813, 277.626 112.632 C 283.514 116.075, 291.705 125.110, 294.503 131.247 C 299.628 142.487, 299.760 154.714, 294.878 166.062 L 292.679 171.174 316.753 195.247 L 340.826 219.321 345.938 217.122 C 357.273 212.246, 369.514 212.372, 380.718 217.481 C 386.566 220.147, 395.077 227.616, 398.599 233.171 C 405.022 243.305, 406.768 257.815, 402.933 269.199 C 392.798 299.285, 355.302 308.306, 332.936 286.039 C 326.352 279.485, 322.276 271.657, 320.722 262.587 L 319.594 256 320.671 249.713 C 321.263 246.255, 322.713 241.427, 323.893 238.985 L 326.039 234.544 301.747 210.253 L 277.456 185.961 273.276 187.981 C 270.977 189.091, 268.625 190, 268.048 190 C 267.328 190, 267 210.578, 267 255.799 L 267 321.598 270.750 322.910 C 284.573 327.746, 295.199 340.552, 297.942 355.677 L 299.062 361.855 297.980 368.677 C 296.513 377.927, 293.115 384.941, 286.930 391.480 C 278.137 400.778, 268.411 405, 255.787 405 C 234.976 405, 217.611 390.011, 213.984 368.915 L 212.852 362.330 214.015 355.915 C 216.802 340.545, 227.337 327.778, 241.250 322.910 L 245 321.598 245 255.879 L 245 190.159 242.049 189.511 C 237.630 188.540, 227.929 181.903, 223.688 176.949 C 218.698 171.119, 215.382 163.858, 213.948 155.622 L 212.769 148.852 213.947 142.862 C 214.595 139.568, 216.020 134.787, 217.112 132.238 L 219.099 127.604 192.788 101.293 L 166.477 74.982 85.883 155.741 L 5.289 236.500 2.895 241.500 L 0.500 246.500 0.513 256 L 0.526 265.500 2.857 270 C 4.487 273.145, 40.025 309.385, 120.845 390.320 L 236.500 506.139 241.500 508.815 L 246.500 511.490 256 511.490 L 265.500 511.490 270.500 508.817 L 275.500 506.143 391.578 389.821 L 507.656 273.500 509.430 269 C 510.407 266.525, 511.609 263.719, 512.103 262.764 C 513.292 260.461, 513.273 246.713, 512.081 247.450 C 511.576 247.762, 510.864 246.659, 510.500 244.999 C 510.135 243.339, 507.878 239.398, 505.483 236.241 C 503.088 233.083, 450.137 179.589, 387.814 117.365 L 274.500 4.231 268.712 2.115 C 261.023 -0.695, 250.522 -0.664, 243 2.193 M 0.343 255.500 C 0.346 259.900, 0.522 261.576, 0.733 259.224 C 0.945 256.872, 0.942 253.272, 0.727 251.224 C 0.512 249.176, 0.339 251.100, 0.343 255.500" stroke="none" fill="#f05a4f" fill-rule="evenodd"/></svg>