<svg xmlns="http://www.w3.org/2000/svg" width="512" height="512" viewBox="0 0 512 512" version="1.1"><path d="M 142.220 133.999 C 128.104 134.368, 116.510 135.090, 115.966 135.634 C 115.342 136.258, 115.083 176.505, 115.246 247.554 L 115.500 358.500 138.250 358.769 L 161 359.038 161 323.519 L 161 288 177.776 288 C 205.297 288, 220.541 285.248, 236.968 277.315 C 245.030 273.422, 247.792 271.388, 255.563 263.617 C 262.702 256.477, 265.473 252.859, 268.293 246.995 C 273.799 235.545, 275.203 229.207, 275.738 213.394 C 276.146 201.338, 275.910 198.067, 274.118 190.894 C 270.721 177.302, 264.974 166.838, 256.069 158.034 C 241.322 143.454, 224.127 136.322, 198.252 134.052 C 185.807 132.960, 182.145 132.956, 142.220 133.999 M 167.750 175.739 L 162 176.100 162 212.188 L 162 248.277 178.750 247.706 C 200.235 246.975, 208.258 244.821, 218.613 237.002 C 222.300 234.219, 224.645 231.386, 226.659 227.287 C 229.235 222.040, 229.499 220.521, 229.492 211 C 229.485 201.883, 229.162 199.847, 227.034 195.542 C 218.966 179.214, 202.108 173.583, 167.750 175.739 M 352.500 187.068 C 331.499 189.940, 313.592 200.862, 305.765 215.575 C 299.733 226.914, 298.227 242.794, 302.093 254.282 C 307.833 271.336, 321.484 282.373, 352.500 295.037 C 367.053 300.980, 371.771 303.622, 374.875 307.569 C 377.364 310.732, 377.572 313.992, 375.538 317.926 C 370.086 328.470, 333.581 326.554, 308.230 314.393 C 304.232 312.475, 300.520 311.179, 299.980 311.512 C 299.393 311.875, 299 320.113, 299 332.074 L 299 352.029 302.250 354.031 C 313.232 360.796, 343.834 365.271, 364.154 363.083 C 385.538 360.781, 398.810 355.185, 409.327 344.036 C 419.159 333.614, 422.967 323.947, 422.988 309.355 C 423.024 284.695, 409.074 269.953, 372 255.474 C 348.397 246.256, 341.574 240.271, 345.064 231.846 C 345.965 229.670, 347.733 228.110, 350.927 226.673 C 360.554 222.340, 387.733 225.084, 404.554 232.087 C 409.332 234.076, 412.502 234.898, 413.097 234.303 C 413.648 233.752, 413.930 225.040, 413.772 213.473 L 413.500 193.589 406.804 191.355 C 403.122 190.127, 396.678 188.644, 392.485 188.061 C 381.197 186.491, 360.483 185.977, 352.500 187.068" stroke="none" fill="#04abfa" fill-rule="evenodd"/><path d="M 74.500 7.451 C 40.970 13.627, 14.745 37.051, 3.353 71 L 0.500 79.500 0.500 256 L 0.500 432.500 3.368 441 C 14.159 472.979, 36.585 494.526, 68.092 503.188 L 76.500 505.500 256 505.500 L 435.500 505.500 444 503.202 C 473.710 495.171, 497.707 472.794, 507.506 443.982 C 508.809 440.152, 510.180 434.983, 510.553 432.497 C 510.926 430.010, 511.629 427.729, 512.115 427.429 C 512.623 427.115, 513 353.513, 513 254.882 C 513 154.934, 512.628 83.112, 512.112 83.431 C 511.624 83.733, 510.920 81.955, 510.549 79.481 C 509.670 73.615, 506.005 62.917, 502.506 56 C 490.842 32.945, 470.459 16.395, 444.374 8.800 L 436.500 6.507 259 6.334 C 117.801 6.197, 80.068 6.425, 74.500 7.451 M 0.489 256 C 0.489 350.875, 0.606 389.688, 0.750 342.250 C 0.894 294.813, 0.894 217.188, 0.750 169.750 C 0.606 122.313, 0.489 161.125, 0.489 256 M 142.220 133.999 C 128.104 134.368, 116.510 135.090, 115.966 135.634 C 115.342 136.258, 115.083 176.505, 115.246 247.554 L 115.500 358.500 138.250 358.769 L 161 359.038 161 323.519 L 161 288 177.776 288 C 205.297 288, 220.541 285.248, 236.968 277.315 C 245.030 273.422, 247.792 271.388, 255.563 263.617 C 262.702 256.477, 265.473 252.859, 268.293 246.995 C 273.799 235.545, 275.203 229.207, 275.738 213.394 C 276.146 201.338, 275.910 198.067, 274.118 190.894 C 270.721 177.302, 264.974 166.838, 256.069 158.034 C 241.322 143.454, 224.127 136.322, 198.252 134.052 C 185.807 132.960, 182.145 132.956, 142.220 133.999 M 167.750 175.739 L 162 176.100 162 212.188 L 162 248.277 178.750 247.706 C 200.235 246.975, 208.258 244.821, 218.613 237.002 C 222.300 234.219, 224.645 231.386, 226.659 227.287 C 229.235 222.040, 229.499 220.521, 229.492 211 C 229.485 201.883, 229.162 199.847, 227.034 195.542 C 218.966 179.214, 202.108 173.583, 167.750 175.739 M 352.500 187.068 C 331.499 189.940, 313.592 200.862, 305.765 215.575 C 299.733 226.914, 298.227 242.794, 302.093 254.282 C 307.833 271.336, 321.484 282.373, 352.500 295.037 C 367.053 300.980, 371.771 303.622, 374.875 307.569 C 377.364 310.732, 377.572 313.992, 375.538 317.926 C 370.086 328.470, 333.581 326.554, 308.230 314.393 C 304.232 312.475, 300.520 311.179, 299.980 311.512 C 299.393 311.875, 299 320.113, 299 332.074 L 299 352.029 302.250 354.031 C 313.232 360.796, 343.834 365.271, 364.154 363.083 C 385.538 360.781, 398.810 355.185, 409.327 344.036 C 419.159 333.614, 422.967 323.947, 422.988 309.355 C 423.024 284.695, 409.074 269.953, 372 255.474 C 348.397 246.256, 341.574 240.271, 345.064 231.846 C 345.965 229.670, 347.733 228.110, 350.927 226.673 C 360.554 222.340, 387.733 225.084, 404.554 232.087 C 409.332 234.076, 412.502 234.898, 413.097 234.303 C 413.648 233.752, 413.930 225.040, 413.772 213.473 L 413.500 193.589 406.804 191.355 C 403.122 190.127, 396.678 188.644, 392.485 188.061 C 381.197 186.491, 360.483 185.977, 352.500 187.068" stroke="none" fill="#041c34" fill-rule="evenodd"/></svg>