<svg xmlns="http://www.w3.org/2000/svg" width="512" height="512" viewBox="0 0 512 512" version="1.1"><path d="M 392.746 162.750 C 392.314 191.708, 392.019 196.385, 390.197 203.144 C 383.715 227.190, 365.815 247.441, 342.839 256.721 C 330.542 261.688, 326.536 261.926, 254.500 261.980 C 180.474 262.035, 180.901 262.003, 168.200 268.399 C 150.366 277.380, 138.503 292.949, 134.522 312.596 C 133.126 319.485, 132.957 329.025, 133.224 386.007 C 133.524 450.040, 133.579 451.625, 135.662 457.106 C 145.450 482.855, 171.846 499.489, 217.383 508.606 C 233.482 511.829, 262.080 512.983, 277.699 511.041 C 307.888 507.286, 334.960 498.571, 351.654 487.235 C 359.477 481.922, 369.143 471.464, 372.353 464.838 C 377.403 454.413, 378 449.760, 378 420.790 L 378 394 317 394 L 256 394 256 386.500 L 256 379 350.840 379 C 442.212 379, 445.964 378.927, 453.452 377.012 C 474.467 371.638, 487.211 355.524, 499.336 319 C 512.259 280.070, 512.753 244.753, 501.052 196.445 C 497.201 180.545, 494.669 173.299, 489.288 162.778 C 483.344 151.158, 474.423 141.521, 465.048 136.595 C 454.183 130.885, 448.230 130.037, 418.867 130.017 L 393.235 130 392.746 162.750 M 314.227 428.116 C 298.169 436.065, 297.963 459.891, 313.880 468.206 C 325.346 474.196, 338.221 470.202, 344.065 458.842 C 349.954 447.395, 345.216 433.127, 333.715 427.669 C 328.678 425.279, 319.536 425.489, 314.227 428.116" stroke="none" fill="#fcdd53" fill-rule="evenodd"/><path d="M 220 1.091 C 174.833 5.522, 149.448 15.826, 139.777 33.653 C 134.460 43.452, 133.772 48.700, 133.271 83.250 L 132.811 115 193.906 115 L 255 115 255 122.465 L 255 129.929 164.750 130.233 C 75.741 130.533, 74.395 130.567, 66.864 132.698 C 37.969 140.878, 19.359 160.979, 11.035 193 C -0.094 235.812, -0.126 271.847, 10.926 315.825 C 16.052 336.225, 22.081 348.569, 32.313 359.614 C 39.500 367.373, 47.136 372.525, 56.398 375.864 C 63.247 378.333, 64.485 378.437, 91.191 378.805 L 118.882 379.186 119.191 343.843 L 119.500 308.500 122.308 300.500 C 131.009 275.706, 150.857 257.006, 176.536 249.410 C 181.904 247.822, 189.847 247.583, 256 247.020 C 335.649 246.342, 331.910 246.621, 344 240.457 C 356.157 234.259, 365.643 224.585, 371.593 212.315 C 377.902 199.305, 377.963 198.482, 377.983 126.799 C 377.994 83.941, 377.632 60.309, 376.910 56.799 C 373.969 42.505, 362.674 26.591, 349.033 17.522 C 330.102 4.937, 309.231 0.959, 259.500 0.460 C 243 0.295, 225.225 0.579, 220 1.091 M 179.239 39.335 C 170.516 42.498, 164.663 51.167, 164.672 60.910 C 164.691 81.571, 190.116 91.160, 203.739 75.645 C 207.853 70.958, 209.300 66.050, 208.814 58.422 C 208.492 53.365, 207.791 51.164, 205.437 47.814 C 199.756 39.731, 188.337 36.035, 179.239 39.335" stroke="none" fill="#3d7aab" fill-rule="evenodd"/></svg>