<svg xmlns="http://www.w3.org/2000/svg" width="512" height="512" viewBox="0 0 512 512" version="1.1"><path d="M 385.204 239.102 C 347.461 244.204, 323.289 262.472, 317.585 290.208 C 312.400 315.419, 320.154 337.534, 339.606 353.012 C 348.890 360.400, 356.664 364.672, 374.797 372.349 C 394.397 380.648, 402.326 385.183, 409.039 391.931 C 416.866 399.800, 418.711 406.636, 415.135 414.509 C 412.725 419.813, 407.483 424.273, 400.332 427.103 C 395.149 429.154, 392.775 429.416, 379 429.455 C 365.867 429.493, 362.202 429.149, 355 427.201 C 344.807 424.444, 330.535 417.685, 323.069 412.078 C 320.083 409.835, 317.495 408, 317.319 408 C 317.144 408, 317 419.202, 317 432.894 L 317 457.787 323.382 460.342 C 330.961 463.376, 342.460 466.356, 353.500 468.148 C 364.243 469.891, 398.267 469.875, 408 468.122 C 439.738 462.405, 459.090 448, 466.602 424.500 C 473.351 403.387, 469.419 379.519, 456.601 363.783 C 448.031 353.263, 436.294 345.873, 407.655 332.968 C 397.670 328.468, 386.407 322.739, 382.628 320.235 C 368.380 310.799, 365.242 297.733, 374.803 287.658 C 387.878 273.882, 428.176 275.057, 454.628 289.986 L 460 293.017 460 269.654 L 460 246.291 452.750 244.141 C 448.762 242.958, 441.675 241.293, 437 240.441 C 426.635 238.552, 395.274 237.741, 385.204 239.102 M 118 263.500 L 118 284 150 284 L 182 284 182 375.500 L 182 467 207.500 467 L 233 467 233 375.500 L 233 284 265 284 L 297 284 297 263.500 L 297 243 207.500 243 L 118 243 118 263.500" stroke="none" fill="#fbfbfb" fill-rule="evenodd"/><path d="M 34 2.285 C 18.393 7.646, 6.592 19.690, 1.943 35 C 0.001 41.397, -0.026 44.941, 0.235 258 L 0.500 474.500 2.812 480.225 C 7.862 492.725, 19.275 504.138, 31.775 509.188 L 37.500 511.500 253.963 511.759 C 449.658 511.993, 470.957 511.865, 475.963 510.422 C 491.296 506.004, 505.029 493.026, 509.469 478.763 C 510.370 475.868, 511.533 472.719, 512.053 471.764 C 513.144 469.764, 513.405 38.261, 512.315 39.351 C 511.939 39.728, 510.869 37.574, 509.938 34.566 C 505.252 19.418, 492.508 6.708, 477.295 2.009 C 470.864 0.023, 468.333 0, 255.645 0.026 L 40.500 0.052 34 2.285 M 0.491 256 C 0.491 375.075, 0.608 423.788, 0.750 364.250 C 0.892 304.713, 0.892 207.288, 0.750 147.750 C 0.608 88.213, 0.491 136.925, 0.491 256 M 385.204 239.102 C 347.461 244.204, 323.289 262.472, 317.585 290.208 C 312.400 315.419, 320.154 337.534, 339.606 353.012 C 348.890 360.400, 356.664 364.672, 374.797 372.349 C 394.397 380.648, 402.326 385.183, 409.039 391.931 C 416.866 399.800, 418.711 406.636, 415.135 414.509 C 412.725 419.813, 407.483 424.273, 400.332 427.103 C 395.149 429.154, 392.775 429.416, 379 429.455 C 365.867 429.493, 362.202 429.149, 355 427.201 C 344.807 424.444, 330.535 417.685, 323.069 412.078 C 320.083 409.835, 317.495 408, 317.319 408 C 317.144 408, 317 419.202, 317 432.894 L 317 457.787 323.382 460.342 C 330.961 463.376, 342.460 466.356, 353.500 468.148 C 364.243 469.891, 398.267 469.875, 408 468.122 C 439.738 462.405, 459.090 448, 466.602 424.500 C 473.351 403.387, 469.419 379.519, 456.601 363.783 C 448.031 353.263, 436.294 345.873, 407.655 332.968 C 397.670 328.468, 386.407 322.739, 382.628 320.235 C 368.380 310.799, 365.242 297.733, 374.803 287.658 C 387.878 273.882, 428.176 275.057, 454.628 289.986 L 460 293.017 460 269.654 L 460 246.291 452.750 244.141 C 448.762 242.958, 441.675 241.293, 437 240.441 C 426.635 238.552, 395.274 237.741, 385.204 239.102 M 118 263.500 L 118 284 150 284 L 182 284 182 375.500 L 182 467 207.500 467 L 233 467 233 375.500 L 233 284 265 284 L 297 284 297 263.500 L 297 243 207.500 243 L 118 243 118 263.500" stroke="none" fill="#347cc4" fill-rule="evenodd"/></svg>